0
SECTION
2
HEADER
9
$INSUNITS
70
4
9
$ACADVER
1
AC1014
9
$HANDSEED
5
FFFF
0
ENDSEC
0
SECTION
2
TABLES
0
TABLE
2
VPORT
5
8
100
AcDbSymbolTable
0
ENDTAB
0
TABLE
2
LTYPE
5
5
100
AcDbSymbolTable
0
LTYPE
5
14
100
AcDbSymbolTableRecord
100
AcDbLinetypeTableRecord
2
BYBLOCK
70
0
0
LTYPE
5
15
100
AcDbSymbolTableRecord
100
AcDbLinetypeTableRecord
2
BYLAYER
70
0
0
ENDTAB
0
TABLE
2
LAYER
5
2
100
AcDbSymbolTable
70
2
0
LAYER
5
50
100
AcDbSymbolTableRecord
100
AcDbLayerTableRecord
2
0
70
0
6
CONTINUOUS
0
ENDTAB
0
TABLE
2
STYLE
5
3
100
AcDbSymbolTable
70
1
0
STYLE
5
11
100
AcDbSymbolTableRecord
100
AcDbTextStyleTableRecord
2
STANDARD
70
0
0
ENDTAB
0
TABLE
2
VIEW
5
6
100
AcDbSymbolTable
70
0
0
ENDTAB
0
TABLE
2
UCS
5
7
100
AcDbSymbolTable
70
0
0
ENDTAB
0
TABLE
2
APPID
5
9
100
AcDbSymbolTable
70
2
0
APPID
5
12
100
AcDbSymbolTableRecord
100
AcDbRegAppTableRecord
2
ACAD
70
0
0
ENDTAB
0
TABLE
2
DIMSTYLE
5
A
100
AcDbSymbolTable
70
1
0
ENDTAB
0
TABLE
2
BLOCK_RECORD
5
1
100
AcDbSymbolTable
70
1
0
BLOCK_RECORD
5
1F
100
AcDbSymbolTableRecord
100
AcDbBlockTableRecord
2
*MODEL_SPACE
0
BLOCK_RECORD
5
1B
100
AcDbSymbolTableRecord
100
AcDbBlockTableRecord
2
*PAPER_SPACE
0
ENDTAB
0
ENDSEC
0
SECTION
2
BLOCKS
0
BLOCK
5
20
100
AcDbEntity
100
AcDbBlockBegin
2
*MODEL_SPACE
0
ENDBLK
5
21
100
AcDbEntity
100
AcDbBlockEnd
0
BLOCK
5
1C
100
AcDbEntity
100
AcDbBlockBegin
2
*PAPER_SPACE
0
ENDBLK
5
1D
100
AcDbEntity
100
AcDbBlockEnd
0
ENDSEC
0
SECTION
2
ENTITIES
0
LWPOLYLINE
5
100
100
AcDbEntity
8
0
100
AcDbPolyline
90
14
70
1
43
0.0
10
-235
20
10
42
0.41421356237309437
10
-240
20
4.9999999999999991
10
-240
20
0
10
-385
20
0
42
0.41421356237309687
10
-400.00000000000006
20
-14.999999999999998
10
-400
20
-280
42
0.41421356237309709
10
-385
20
-294.99999999999994
10
-15
20
-295
42
0.4142135623730962
10
-1.3322676295501878e-14
20
-280
10
0
20
-15
42
0.4142135623730952
10
-15
20
0
10
-160
20
0
10
-160
20
5
42
0.41421356237309437
10
-165
20
9.9999999999999893
0
CIRCLE
5
101
100
AcDbEntity
8
0
100
AcDbCircle
10
-370
20
-30
30
0
40
6.0000000000000142
210
0
220
-0
230
1
0
CIRCLE
5
102
100
AcDbEntity
8
0
100
AcDbCircle
10
-144.99999999999997
20
-223.72346642195839
30
0
40
1.6499999999999915
210
0
220
-0
230
1
0
CIRCLE
5
103
100
AcDbEntity
8
0
100
AcDbCircle
10
-200
20
-86.27653357804158
30
0
40
1.6499999999999915
210
0
220
-0
230
1
0
CIRCLE
5
104
100
AcDbEntity
8
0
100
AcDbCircle
10
-138.77653357804155
20
-147.50000000000003
30
0
40
1.6499999999999915
210
0
220
-0
230
1
0
CIRCLE
5
105
100
AcDbEntity
8
0
100
AcDbCircle
10
-299.6117332109792
20
-112.50000000000001
30
0
40
1.6499999999999915
210
0
220
-0
230
1
0
CIRCLE
5
106
100
AcDbEntity
8
0
100
AcDbCircle
10
-100.38826678902082
20
-112.5
30
0
40
1.6499999999999915
210
0
220
-0
230
1
0
LWPOLYLINE
5
107
100
AcDbEntity
8
0
100
AcDbPolyline
90
4
70
1
43
0.0
10
-304.61173321097925
20
-117.49999999999993
10
-304.6117332109792
20
-177.5
10
-364.6117332109792
20
-177.5
10
-364.6117332109792
20
-117.49999999999993
0
LWPOLYLINE
5
108
100
AcDbEntity
8
0
100
AcDbPolyline
90
4
70
1
43
0.0
10
-35.388266789020832
20
-177.5
10
-95.388266789020804
20
-177.5
10
-95.388266789020761
20
-117.49999999999993
10
-35.388266789020832
20
-117.49999999999993
0
CIRCLE
5
109
100
AcDbEntity
8
0
100
AcDbCircle
10
-100.3882667890208
20
-182.5
30
0
40
1.6499999999999915
210
0
220
-0
230
1
0
CIRCLE
5
110
100
AcDbEntity
8
0
100
AcDbCircle
10
-369.6117332109792
20
-182.50000000000003
30
0
40
1.6499999999999915
210
0
220
-0
230
1
0
CIRCLE
5
111
100
AcDbEntity
8
0
100
AcDbCircle
10
-30.388266789020811
20
-182.5
30
0
40
1.6500000000000048
210
0
220
-0
230
1
0
CIRCLE
5
112
100
AcDbEntity
8
0
100
AcDbCircle
10
-145
20
-22.27653357804158
30
0
40
1.6500000000000092
210
0
220
-0
230
1
0
CIRCLE
5
113
100
AcDbEntity
8
0
100
AcDbCircle
10
-370
20
-265
30
0
40
6.0000000000000142
210
0
220
-0
230
1
0
CIRCLE
5
114
100
AcDbEntity
8
0
100
AcDbCircle
10
-333.33333333333326
20
-264.99999999999994
30
0
40
6.0000000000000142
210
0
220
-0
230
1
0
LWPOLYLINE
5
115
100
AcDbEntity
8
0
100
AcDbPolyline
90
8
70
1
43
0.0
10
-333.19091812741772
20
-5.1000000000003274
10
-333.19091812741772
20
-9.9000000000002775
42
-0.41421356237309176
10
-334.19091812741777
20
-10.900000000000267
10
-351.99091812741779
20
-10.900000000000315
42
-0.41421356237309792
10
-352.99091812741779
20
-9.9000000000002899
10
-352.99091812741779
20
-5.1000000000003034
42
-0.41421356237309209
10
-351.99091812741779
20
-4.1000000000003132
10
-334.19091812741777
20
-4.1000000000003034
42
-0.41421356237309792
0
CIRCLE
5
116
100
AcDbEntity
8
0
100
AcDbCircle
10
-144.99999999999997
20
-272.72346642195839
30
0
40
1.6500000000000092
210
0
220
-0
230
1
0
CIRCLE
5
117
100
AcDbEntity
8
0
100
AcDbCircle
10
-29.993893407370816
20
-29.799999999999986
30
0
40
6.0000000000000009
210
0
220
-0
230
1
0
CIRCLE
5
118
100
AcDbEntity
8
0
100
AcDbCircle
10
-369.6117332109792
20
-112.50000000000001
30
0
40
1.6499999999999915
210
0
220
-0
230
1
0
CIRCLE
5
119
100
AcDbEntity
8
0
100
AcDbCircle
10
-30.388266789020818
20
-112.5
30
0
40
1.6500000000000048
210
0
220
-0
230
1
0
CIRCLE
5
120
100
AcDbEntity
8
0
100
AcDbCircle
10
-299.6117332109792
20
-182.50000000000003
30
0
40
1.6499999999999915
210
0
220
-0
230
1
0
CIRCLE
5
121
100
AcDbEntity
8
0
100
AcDbCircle
10
-261.22346642195839
20
-147.5
30
0
40
1.6499999999999915
210
0
220
-0
230
1
0
CIRCLE
5
122
100
AcDbEntity
8
0
100
AcDbCircle
10
-145
20
-71.276533578041608
30
0
40
1.6499999999999915
210
0
220
-0
230
1
0
CIRCLE
5
123
100
AcDbEntity
8
0
100
AcDbCircle
10
-103.33333333333337
20
-264.99999999999994
30
0
40
5.9999999999999964
210
0
220
-0
230
1
0
CIRCLE
5
124
100
AcDbEntity
8
0
100
AcDbCircle
10
-296.66666666666657
20
-264.99999999999994
30
0
40
6.0000000000000142
210
0
220
-0
230
1
0
CIRCLE
5
125
100
AcDbEntity
8
0
100
AcDbCircle
10
-255
20
-272.72346642195839
30
0
40
1.6499999999999915
210
0
220
-0
230
1
0
CIRCLE
5
126
100
AcDbEntity
8
0
100
AcDbCircle
10
-66.666666666666686
20
-264.99999999999994
30
0
40
5.9999999999999876
210
0
220
-0
230
1
0
CIRCLE
5
127
100
AcDbEntity
8
0
100
AcDbCircle
10
-255
20
-223.72346642195839
30
0
40
1.6499999999999915
210
0
220
-0
230
1
0
LWPOLYLINE
5
128
100
AcDbEntity
8
0
100
AcDbPolyline
90
8
70
1
43
0.0
10
-333.19091812740004
20
-285.10000000000008
10
-333.19091812740004
20
-289.89999999999998
42
-0.41421356237309509
10
-334.1909181274001
20
-290.89999999999998
10
-351.99091812739999
20
-290.89999999999998
42
-0.41421356237309509
10
-352.99091812740005
20
-289.89999999999998
10
-352.99091812740011
20
-285.10000000000002
42
-0.41421356237309509
10
-351.99091812740005
20
-284.10000000000002
10
-334.1909181274001
20
-284.10000000000008
42
-0.41421356237309509
0
LWPOLYLINE
5
129
100
AcDbEntity
8
0
100
AcDbPolyline
90
8
70
1
43
0.0
10
-47.009081872582144
20
-5.1000000000003523
10
-47.009081872582144
20
-9.9000000000003539
42
-0.41421356237309509
10
-48.009081872582144
20
-10.900000000000354
10
-65.809081872582155
20
-10.900000000000318
42
-0.41421356237309537
10
-66.809081872582141
20
-9.9000000000003201
10
-66.809081872582141
20
-5.1000000000003514
42
-0.4142135623730947
10
-65.809081872582141
20
-4.1000000000003523
10
-48.009081872582144
20
-4.1000000000003558
42
-0.41421356237309509
0
CIRCLE
5
130
100
AcDbEntity
8
0
100
AcDbCircle
10
-255
20
-71.276533578041608
30
0
40
1.6499999999999915
210
0
220
-0
230
1
0
CIRCLE
5
131
100
AcDbEntity
8
0
100
AcDbCircle
10
-255
20
-22.27653357804158
30
0
40
1.6499999999999915
210
0
220
-0
230
1
0
CIRCLE
5
132
100
AcDbEntity
8
0
100
AcDbCircle
10
-200
20
-147.5
30
0
40
56.000000000000014
210
0
220
-0
230
1
0
LWPOLYLINE
5
133
100
AcDbEntity
8
0
100
AcDbPolyline
90
8
70
1
43
0.0
10
-48.00908187259995
20
-290.89999999999998
10
-65.809081872599947
20
-290.89999999999998
42
-0.41421356237309509
10
-66.809081872599947
20
-289.89999999999998
10
-66.809081872599961
20
-285.10000000000008
42
-0.41421356237309509
10
-65.809081872599947
20
-284.10000000000008
10
-48.00908187259995
20
-284.10000000000002
42
-0.41421356237309509
10
-47.00908187259995
20
-285.10000000000002
10
-47.009081872599936
20
-289.89999999999998
42
-0.41421356237309509
0
CIRCLE
5
134
100
AcDbEntity
8
0
100
AcDbCircle
10
-29.999999999999982
20
-265
30
0
40
6.0000000000000009
210
0
220
-0
230
1
0
CIRCLE
5
135
100
AcDbEntity
8
0
100
AcDbCircle
10
-200
20
-208.72346642195845
30
0
40
1.6499999999999915
210
0
220
-0
230
1
0
ENDSEC
0
SECTION
2
OBJECTS
0
DICTIONARY
5
C
100
AcDbDictionary
3
ACAD_GROUP
350
D
3
ACAD_MLINESTYLE
350
17
0
DICTIONARY
5
D
100
AcDbDictionary
0
DICTIONARY
5
1A
330
C
100
AcDbDictionary
0
DICTIONARY
5
17
100
AcDbDictionary
0
ENDSEC
0
EOF
